<svg viewBox="0 0 4832 1184"  version="1.1" xmlns="http://www.w3.org/2000/svg">
<g id="qubit_lines">
<path id="qubit_line:0" d="M64,64 L4800,64 " stroke="black"/>
<text dominant-baseline="central" text-anchor="end" font-family="monospace" font-size="12" x="64" y="64">q0</text>
<path id="qubit_line:1" d="M64,128 L4800,128 " stroke="black"/>
<text dominant-baseline="central" text-anchor="end" font-family="monospace" font-size="12" x="64" y="128">q1</text>
<path id="qubit_line:2" d="M64,192 L4800,192 " stroke="black"/>
<text dominant-baseline="central" text-anchor="end" font-family="monospace" font-size="12" x="64" y="192">q2</text>
<path id="qubit_line:3" d="M64,256 L4800,256 " stroke="black"/>
<text dominant-baseline="central" text-anchor="end" font-family="monospace" font-size="12" x="64" y="256">q3</text>
<path id="qubit_line:4" d="M64,320 L4800,320 " stroke="black"/>
<text dominant-baseline="central" text-anchor="end" font-family="monospace" font-size="12" x="64" y="320">q4</text>
<path id="qubit_line:5" d="M64,384 L4800,384 " stroke="black"/>
<text dominant-baseline="central" text-anchor="end" font-family="monospace" font-size="12" x="64" y="384">q5</text>
<path id="qubit_line:6" d="M64,448 L4800,448 " stroke="black"/>
<text dominant-baseline="central" text-anchor="end" font-family="monospace" font-size="12" x="64" y="448">q6</text>
<path id="qubit_line:7" d="M64,512 L4800,512 " stroke="black"/>
<text dominant-baseline="central" text-anchor="end" font-family="monospace" font-size="12" x="64" y="512">q7</text>
<path id="qubit_line:8" d="M64,576 L4800,576 " stroke="black"/>
<text dominant-baseline="central" text-anchor="end" font-family="monospace" font-size="12" x="64" y="576">q8</text>
<path id="qubit_line:9" d="M64,640 L4800,640 " stroke="black"/>
<text dominant-baseline="central" text-anchor="end" font-family="monospace" font-size="12" x="64" y="640">q9</text>
<path id="qubit_line:10" d="M64,704 L4800,704 " stroke="black"/>
<text dominant-baseline="central" text-anchor="end" font-family="monospace" font-size="12" x="64" y="704">q10</text>
<path id="qubit_line:11" d="M64,768 L4800,768 " stroke="black"/>
<text dominant-baseline="central" text-anchor="end" font-family="monospace" font-size="12" x="64" y="768">q11</text>
<path id="qubit_line:12" d="M64,832 L4800,832 " stroke="black"/>
<text dominant-baseline="central" text-anchor="end" font-family="monospace" font-size="12" x="64" y="832">q12</text>
<path id="qubit_line:13" d="M64,896 L4800,896 " stroke="black"/>
<text dominant-baseline="central" text-anchor="end" font-family="monospace" font-size="12" x="64" y="896">q13</text>
<path id="qubit_line:14" d="M64,960 L4800,960 " stroke="black"/>
<text dominant-baseline="central" text-anchor="end" font-family="monospace" font-size="12" x="64" y="960">q14</text>
<path id="qubit_line:15" d="M64,1024 L4800,1024 " stroke="black"/>
<text dominant-baseline="central" text-anchor="end" font-family="monospace" font-size="12" x="64" y="1024">q15</text>
<path id="qubit_line:16" d="M64,1088 L4800,1088 " stroke="black"/>
<text dominant-baseline="central" text-anchor="end" font-family="monospace" font-size="12" x="64" y="1088">q16</text>
</g>
<rect x="80" y="48" width="224" height="32" stroke="black" fill="white"/>
<text dominant-baseline="central" text-anchor="middle" font-family="monospace" font-size="16" x="192" y="64">COORDS(1.5,-0.5)</text>
<rect x="80" y="112" width="224" height="32" stroke="black" fill="white"/>
<text dominant-baseline="central" text-anchor="middle" font-family="monospace" font-size="16" x="192" y="128">COORDS(0,0)</text>
<rect x="80" y="176" width="224" height="32" stroke="black" fill="white"/>
<text dominant-baseline="central" text-anchor="middle" font-family="monospace" font-size="16" x="192" y="192">COORDS(1,0)</text>
<rect x="80" y="240" width="224" height="32" stroke="black" fill="white"/>
<text dominant-baseline="central" text-anchor="middle" font-family="monospace" font-size="16" x="192" y="256">COORDS(2,0)</text>
<rect x="80" y="304" width="224" height="32" stroke="black" fill="white"/>
<text dominant-baseline="central" text-anchor="middle" font-family="monospace" font-size="16" x="192" y="320">COORDS(-0.5,0.5)</text>
<rect x="80" y="368" width="224" height="32" stroke="black" fill="white"/>
<text dominant-baseline="central" text-anchor="middle" font-family="monospace" font-size="16" x="192" y="384">COORDS(0.5,0.5)</text>
<rect x="80" y="432" width="224" height="32" stroke="black" fill="white"/>
<text dominant-baseline="central" text-anchor="middle" font-family="monospace" font-size="16" x="192" y="448">COORDS(1.5,0.5)</text>
<rect x="80" y="496" width="224" height="32" stroke="black" fill="white"/>
<text dominant-baseline="central" text-anchor="middle" font-family="monospace" font-size="16" x="192" y="512">COORDS(0,1)</text>
<rect x="80" y="560" width="224" height="32" stroke="black" fill="white"/>
<text dominant-baseline="central" text-anchor="middle" font-family="monospace" font-size="16" x="192" y="576">COORDS(1,1)</text>
<rect x="80" y="624" width="224" height="32" stroke="black" fill="white"/>
<text dominant-baseline="central" text-anchor="middle" font-family="monospace" font-size="16" x="192" y="640">COORDS(2,1)</text>
<rect x="80" y="688" width="224" height="32" stroke="black" fill="white"/>
<text dominant-baseline="central" text-anchor="middle" font-family="monospace" font-size="16" x="192" y="704">COORDS(0.5,1.5)</text>
<rect x="80" y="752" width="224" height="32" stroke="black" fill="white"/>
<text dominant-baseline="central" text-anchor="middle" font-family="monospace" font-size="16" x="192" y="768">COORDS(1.5,1.5)</text>
<rect x="80" y="816" width="224" height="32" stroke="black" fill="white"/>
<text dominant-baseline="central" text-anchor="middle" font-family="monospace" font-size="16" x="192" y="832">COORDS(2.5,1.5)</text>
<rect x="80" y="880" width="224" height="32" stroke="black" fill="white"/>
<text dominant-baseline="central" text-anchor="middle" font-family="monospace" font-size="16" x="192" y="896">COORDS(0,2)</text>
<rect x="80" y="944" width="224" height="32" stroke="black" fill="white"/>
<text dominant-baseline="central" text-anchor="middle" font-family="monospace" font-size="16" x="192" y="960">COORDS(1,2)</text>
<rect x="80" y="1008" width="224" height="32" stroke="black" fill="white"/>
<text dominant-baseline="central" text-anchor="middle" font-family="monospace" font-size="16" x="192" y="1024">COORDS(2,2)</text>
<rect x="80" y="1072" width="224" height="32" stroke="black" fill="white"/>
<text dominant-baseline="central" text-anchor="middle" font-family="monospace" font-size="16" x="192" y="1088">COORDS(0.5,2.5)</text>
<rect x="336" y="112" width="32" height="32" stroke="black" fill="black"/>
<text dominant-baseline="central" text-anchor="middle" font-family="monospace" font-size="30" x="352" y="128" fill="white">R</text>
<rect x="336" y="176" width="32" height="32" stroke="black" fill="black"/>
<text dominant-baseline="central" text-anchor="middle" font-family="monospace" font-size="30" x="352" y="192" fill="white">R</text>
<rect x="336" y="240" width="32" height="32" stroke="black" fill="black"/>
<text dominant-baseline="central" text-anchor="middle" font-family="monospace" font-size="30" x="352" y="256" fill="white">R</text>
<rect x="336" y="496" width="32" height="32" stroke="black" fill="black"/>
<text dominant-baseline="central" text-anchor="middle" font-family="monospace" font-size="30" x="352" y="512" fill="white">R</text>
<rect x="336" y="560" width="32" height="32" stroke="black" fill="black"/>
<text dominant-baseline="central" text-anchor="middle" font-family="monospace" font-size="30" x="352" y="576" fill="white">R</text>
<rect x="336" y="624" width="32" height="32" stroke="black" fill="black"/>
<text dominant-baseline="central" text-anchor="middle" font-family="monospace" font-size="30" x="352" y="640" fill="white">R</text>
<rect x="336" y="880" width="32" height="32" stroke="black" fill="black"/>
<text dominant-baseline="central" text-anchor="middle" font-family="monospace" font-size="30" x="352" y="896" fill="white">R</text>
<rect x="336" y="944" width="32" height="32" stroke="black" fill="black"/>
<text dominant-baseline="central" text-anchor="middle" font-family="monospace" font-size="30" x="352" y="960" fill="white">R</text>
<rect x="336" y="1008" width="32" height="32" stroke="black" fill="black"/>
<text dominant-baseline="central" text-anchor="middle" font-family="monospace" font-size="30" x="352" y="1024" fill="white">R</text>
<path d="M68,40 L68,32 L380,32 L380,40 " stroke="black" fill="none"/>
<path d="M68,1144 L68,1152 L380,1152 L380,1144 " stroke="black" fill="none"/>
<rect x="400" y="368" width="32" height="32" stroke="black" fill="black"/>
<text dominant-baseline="central" text-anchor="middle" font-family="monospace" font-size="30" x="416" y="384" fill="white">R</text>
<rect x="400" y="1072" width="32" height="32" stroke="black" fill="black"/>
<text dominant-baseline="central" text-anchor="middle" font-family="monospace" font-size="30" x="416" y="1088" fill="white">R</text>
<rect x="400" y="48" width="32" height="32" stroke="black" fill="black"/>
<text dominant-baseline="central" text-anchor="middle" font-family="monospace" font-size="30" x="416" y="64" fill="white">R</text>
<rect x="400" y="752" width="32" height="32" stroke="black" fill="black"/>
<text dominant-baseline="central" text-anchor="middle" font-family="monospace" font-size="30" x="416" y="768" fill="white">R</text>
<rect x="400" y="304" width="32" height="32" stroke="black" fill="black"/>
<text dominant-baseline="central" text-anchor="middle" font-family="monospace" font-size="30" x="416" y="320" fill="white">R</text>
<rect x="400" y="688" width="32" height="32" stroke="black" fill="black"/>
<text dominant-baseline="central" text-anchor="middle" font-family="monospace" font-size="30" x="416" y="704" fill="white">R</text>
<rect x="400" y="432" width="32" height="32" stroke="black" fill="black"/>
<text dominant-baseline="central" text-anchor="middle" font-family="monospace" font-size="30" x="416" y="448" fill="white">R</text>
<rect x="400" y="816" width="32" height="32" stroke="black" fill="black"/>
<text dominant-baseline="central" text-anchor="middle" font-family="monospace" font-size="30" x="416" y="832" fill="white">R</text>
<rect x="464" y="368" width="32" height="32" stroke="black" fill="white"/>
<text dominant-baseline="central" text-anchor="middle" font-family="monospace" font-size="30" x="480" y="384">H</text>
<path d="M544,192 L544,384 " stroke="black"/>
<circle cx="544" cy="384" r="12" stroke="none" fill="black"/>
<circle cx="544" cy="192" r="12" stroke="black" fill="white"/>
<path d="M532,192 L556,192 M544,180 L544,204 " stroke="black"/>
<path d="M608,128 L608,384 " stroke="black"/>
<circle cx="608" cy="384" r="12" stroke="none" fill="black"/>
<circle cx="608" cy="128" r="12" stroke="black" fill="white"/>
<path d="M596,128 L620,128 M608,116 L608,140 " stroke="black"/>
<path d="M672,384 L672,576 " stroke="black"/>
<circle cx="672" cy="384" r="12" stroke="none" fill="black"/>
<circle cx="672" cy="576" r="12" stroke="black" fill="white"/>
<path d="M660,576 L684,576 M672,564 L672,588 " stroke="black"/>
<path d="M736,384 L736,512 " stroke="black"/>
<circle cx="736" cy="384" r="12" stroke="none" fill="black"/>
<circle cx="736" cy="512" r="12" stroke="black" fill="white"/>
<path d="M724,512 L748,512 M736,500 L736,524 " stroke="black"/>
<rect x="784" y="368" width="32" height="32" stroke="black" fill="white"/>
<text dominant-baseline="central" text-anchor="middle" font-family="monospace" font-size="30" x="800" y="384">H</text>
<rect x="784" y="1072" width="32" height="32" stroke="black" fill="white"/>
<text dominant-baseline="central" text-anchor="middle" font-family="monospace" font-size="30" x="800" y="1088">H</text>
<path d="M864,960 L864,1088 " stroke="black"/>
<circle cx="864" cy="1088" r="12" stroke="none" fill="black"/>
<circle cx="864" cy="960" r="12" stroke="black" fill="white"/>
<path d="M852,960 L876,960 M864,948 L864,972 " stroke="black"/>
<path d="M928,896 L928,1088 " stroke="black"/>
<circle cx="928" cy="1088" r="12" stroke="none" fill="black"/>
<circle cx="928" cy="896" r="12" stroke="black" fill="white"/>
<path d="M916,896 L940,896 M928,884 L928,908 " stroke="black"/>
<rect x="976" y="1072" width="32" height="32" stroke="black" fill="white"/>
<text dominant-baseline="central" text-anchor="middle" font-family="monospace" font-size="30" x="992" y="1088">H</text>
<rect x="976" y="48" width="32" height="32" stroke="black" fill="white"/>
<text dominant-baseline="central" text-anchor="middle" font-family="monospace" font-size="30" x="992" y="64">H</text>
<path d="M1056,64 L1056,256 " stroke="black"/>
<circle cx="1056" cy="64" r="12" stroke="none" fill="black"/>
<circle cx="1056" cy="256" r="12" stroke="black" fill="white"/>
<path d="M1044,256 L1068,256 M1056,244 L1056,268 " stroke="black"/>
<path d="M1120,64 L1120,192 " stroke="black"/>
<circle cx="1120" cy="64" r="12" stroke="none" fill="black"/>
<circle cx="1120" cy="192" r="12" stroke="black" fill="white"/>
<path d="M1108,192 L1132,192 M1120,180 L1120,204 " stroke="black"/>
<rect x="1168" y="48" width="32" height="32" stroke="black" fill="white"/>
<text dominant-baseline="central" text-anchor="middle" font-family="monospace" font-size="30" x="1184" y="64">H</text>
<rect x="1168" y="752" width="32" height="32" stroke="black" fill="white"/>
<text dominant-baseline="central" text-anchor="middle" font-family="monospace" font-size="30" x="1184" y="768">H</text>
<path d="M1248,640 L1248,768 " stroke="black"/>
<circle cx="1248" cy="768" r="12" stroke="none" fill="black"/>
<circle cx="1248" cy="640" r="12" stroke="black" fill="white"/>
<path d="M1236,640 L1260,640 M1248,628 L1248,652 " stroke="black"/>
<path d="M1312,576 L1312,768 " stroke="black"/>
<circle cx="1312" cy="768" r="12" stroke="none" fill="black"/>
<circle cx="1312" cy="576" r="12" stroke="black" fill="white"/>
<path d="M1300,576 L1324,576 M1312,564 L1312,588 " stroke="black"/>
<path d="M1376,768 L1376,1024 " stroke="black"/>
<circle cx="1376" cy="768" r="12" stroke="none" fill="black"/>
<circle cx="1376" cy="1024" r="12" stroke="black" fill="white"/>
<path d="M1364,1024 L1388,1024 M1376,1012 L1376,1036 " stroke="black"/>
<path d="M1440,768 L1440,960 " stroke="black"/>
<circle cx="1440" cy="768" r="12" stroke="none" fill="black"/>
<circle cx="1440" cy="960" r="12" stroke="black" fill="white"/>
<path d="M1428,960 L1452,960 M1440,948 L1440,972 " stroke="black"/>
<rect x="1488" y="752" width="32" height="32" stroke="black" fill="white"/>
<text dominant-baseline="central" text-anchor="middle" font-family="monospace" font-size="30" x="1504" y="768">H</text>
<path d="M1504,128 L1504,320 " stroke="black"/>
<circle cx="1504" cy="128" r="12" stroke="none" fill="black"/>
<circle cx="1504" cy="320" r="12" stroke="black" fill="white"/>
<path d="M1492,320 L1516,320 M1504,308 L1504,332 " stroke="black"/>
<path d="M1568,320 L1568,512 " stroke="black"/>
<circle cx="1568" cy="512" r="12" stroke="none" fill="black"/>
<circle cx="1568" cy="320" r="12" stroke="black" fill="white"/>
<path d="M1556,320 L1580,320 M1568,308 L1568,332 " stroke="black"/>
<path d="M1568,576 L1568,704 " stroke="black"/>
<circle cx="1568" cy="576" r="12" stroke="none" fill="black"/>
<circle cx="1568" cy="704" r="12" stroke="black" fill="white"/>
<path d="M1556,704 L1580,704 M1568,692 L1568,716 " stroke="black"/>
<path d="M1632,704 L1632,960 " stroke="black"/>
<circle cx="1632" cy="960" r="12" stroke="none" fill="black"/>
<circle cx="1632" cy="704" r="12" stroke="black" fill="white"/>
<path d="M1620,704 L1644,704 M1632,692 L1632,716 " stroke="black"/>
<path d="M1696,512 L1696,704 " stroke="black"/>
<circle cx="1696" cy="512" r="12" stroke="none" fill="black"/>
<circle cx="1696" cy="704" r="12" stroke="black" fill="white"/>
<path d="M1684,704 L1708,704 M1696,692 L1696,716 " stroke="black"/>
<path d="M1760,704 L1760,896 " stroke="black"/>
<circle cx="1760" cy="896" r="12" stroke="none" fill="black"/>
<circle cx="1760" cy="704" r="12" stroke="black" fill="white"/>
<path d="M1748,704 L1772,704 M1760,692 L1760,716 " stroke="black"/>
<path d="M1760,256 L1760,448 " stroke="black"/>
<circle cx="1760" cy="256" r="12" stroke="none" fill="black"/>
<circle cx="1760" cy="448" r="12" stroke="black" fill="white"/>
<path d="M1748,448 L1772,448 M1760,436 L1760,460 " stroke="black"/>
<path d="M1824,448 L1824,640 " stroke="black"/>
<circle cx="1824" cy="640" r="12" stroke="none" fill="black"/>
<circle cx="1824" cy="448" r="12" stroke="black" fill="white"/>
<path d="M1812,448 L1836,448 M1824,436 L1824,460 " stroke="black"/>
<path d="M1888,192 L1888,448 " stroke="black"/>
<circle cx="1888" cy="192" r="12" stroke="none" fill="black"/>
<circle cx="1888" cy="448" r="12" stroke="black" fill="white"/>
<path d="M1876,448 L1900,448 M1888,436 L1888,460 " stroke="black"/>
<path d="M1952,448 L1952,576 " stroke="black"/>
<circle cx="1952" cy="576" r="12" stroke="none" fill="black"/>
<circle cx="1952" cy="448" r="12" stroke="black" fill="white"/>
<path d="M1940,448 L1964,448 M1952,436 L1952,460 " stroke="black"/>
<path d="M1952,640 L1952,832 " stroke="black"/>
<circle cx="1952" cy="640" r="12" stroke="none" fill="black"/>
<circle cx="1952" cy="832" r="12" stroke="black" fill="white"/>
<path d="M1940,832 L1964,832 M1952,820 L1952,844 " stroke="black"/>
<path d="M2016,832 L2016,1024 " stroke="black"/>
<circle cx="2016" cy="1024" r="12" stroke="none" fill="black"/>
<circle cx="2016" cy="832" r="12" stroke="black" fill="white"/>
<path d="M2004,832 L2028,832 M2016,820 L2016,844 " stroke="black"/>
<rect x="2000" y="368" width="32" height="32" stroke="black" fill="black"/>
<text dominant-baseline="central" text-anchor="middle" font-family="monospace" font-size="30" x="2016" y="384" fill="white">M</text>
<text text-anchor="middle" font-family="monospace" font-size="8" x="2016" y="364">rec[0]</text>
<rect x="2000" y="1072" width="32" height="32" stroke="black" fill="black"/>
<text dominant-baseline="central" text-anchor="middle" font-family="monospace" font-size="30" x="2016" y="1088" fill="white">M</text>
<text text-anchor="middle" font-family="monospace" font-size="8" x="2016" y="1068">rec[1]</text>
<rect x="2000" y="48" width="32" height="32" stroke="black" fill="black"/>
<text dominant-baseline="central" text-anchor="middle" font-family="monospace" font-size="30" x="2016" y="64" fill="white">M</text>
<text text-anchor="middle" font-family="monospace" font-size="8" x="2016" y="44">rec[2]</text>
<rect x="2000" y="752" width="32" height="32" stroke="black" fill="black"/>
<text dominant-baseline="central" text-anchor="middle" font-family="monospace" font-size="30" x="2016" y="768" fill="white">M</text>
<text text-anchor="middle" font-family="monospace" font-size="8" x="2016" y="748">rec[3]</text>
<rect x="2000" y="304" width="32" height="32" stroke="black" fill="black"/>
<text dominant-baseline="central" text-anchor="middle" font-family="monospace" font-size="30" x="2016" y="320" fill="white">M</text>
<text text-anchor="middle" font-family="monospace" font-size="8" x="2016" y="300">rec[4]</text>
<rect x="2000" y="688" width="32" height="32" stroke="black" fill="black"/>
<text dominant-baseline="central" text-anchor="middle" font-family="monospace" font-size="30" x="2016" y="704" fill="white">M</text>
<text text-anchor="middle" font-family="monospace" font-size="8" x="2016" y="684">rec[5]</text>
<rect x="2000" y="432" width="32" height="32" stroke="black" fill="black"/>
<text dominant-baseline="central" text-anchor="middle" font-family="monospace" font-size="30" x="2016" y="448" fill="white">M</text>
<text text-anchor="middle" font-family="monospace" font-size="8" x="2016" y="428">rec[6]</text>
<rect x="2064" y="816" width="32" height="32" stroke="black" fill="black"/>
<text dominant-baseline="central" text-anchor="middle" font-family="monospace" font-size="30" x="2080" y="832" fill="white">M</text>
<text text-anchor="middle" font-family="monospace" font-size="8" x="2080" y="812">rec[7]</text>
<path d="M388,40 L388,32 L2108,32 L2108,40 " stroke="black" fill="none"/>
<path d="M388,1144 L388,1152 L2108,1152 L2108,1144 " stroke="black" fill="none"/>
<rect x="2128" y="560" width="32" height="32" stroke="black" fill="white"/>
<text dominant-baseline="central" text-anchor="middle" font-family="monospace" font-size="30" x="2144" y="576">X</text>
<rect x="2128" y="368" width="32" height="32" stroke="black" fill="black"/>
<text dominant-baseline="central" text-anchor="middle" font-family="monospace" font-size="30" x="2144" y="384" fill="white">R</text>
<rect x="2128" y="1072" width="32" height="32" stroke="black" fill="black"/>
<text dominant-baseline="central" text-anchor="middle" font-family="monospace" font-size="30" x="2144" y="1088" fill="white">R</text>
<rect x="2128" y="48" width="32" height="32" stroke="black" fill="black"/>
<text dominant-baseline="central" text-anchor="middle" font-family="monospace" font-size="30" x="2144" y="64" fill="white">R</text>
<rect x="2128" y="752" width="32" height="32" stroke="black" fill="black"/>
<text dominant-baseline="central" text-anchor="middle" font-family="monospace" font-size="30" x="2144" y="768" fill="white">R</text>
<rect x="2128" y="304" width="32" height="32" stroke="black" fill="black"/>
<text dominant-baseline="central" text-anchor="middle" font-family="monospace" font-size="30" x="2144" y="320" fill="white">R</text>
<rect x="2128" y="688" width="32" height="32" stroke="black" fill="black"/>
<text dominant-baseline="central" text-anchor="middle" font-family="monospace" font-size="30" x="2144" y="704" fill="white">R</text>
<rect x="2128" y="432" width="32" height="32" stroke="black" fill="black"/>
<text dominant-baseline="central" text-anchor="middle" font-family="monospace" font-size="30" x="2144" y="448" fill="white">R</text>
<rect x="2128" y="816" width="32" height="32" stroke="black" fill="black"/>
<text dominant-baseline="central" text-anchor="middle" font-family="monospace" font-size="30" x="2144" y="832" fill="white">R</text>
<rect x="2192" y="368" width="32" height="32" stroke="black" fill="white"/>
<text dominant-baseline="central" text-anchor="middle" font-family="monospace" font-size="30" x="2208" y="384">H</text>
<path d="M2272,192 L2272,384 " stroke="black"/>
<circle cx="2272" cy="384" r="12" stroke="none" fill="black"/>
<circle cx="2272" cy="192" r="12" stroke="black" fill="white"/>
<path d="M2260,192 L2284,192 M2272,180 L2272,204 " stroke="black"/>
<path d="M2336,128 L2336,384 " stroke="black"/>
<circle cx="2336" cy="384" r="12" stroke="none" fill="black"/>
<circle cx="2336" cy="128" r="12" stroke="black" fill="white"/>
<path d="M2324,128 L2348,128 M2336,116 L2336,140 " stroke="black"/>
<path d="M2400,384 L2400,576 " stroke="black"/>
<circle cx="2400" cy="384" r="12" stroke="none" fill="black"/>
<circle cx="2400" cy="576" r="12" stroke="black" fill="white"/>
<path d="M2388,576 L2412,576 M2400,564 L2400,588 " stroke="black"/>
<path d="M2464,384 L2464,512 " stroke="black"/>
<circle cx="2464" cy="384" r="12" stroke="none" fill="black"/>
<circle cx="2464" cy="512" r="12" stroke="black" fill="white"/>
<path d="M2452,512 L2476,512 M2464,500 L2464,524 " stroke="black"/>
<rect x="2512" y="368" width="32" height="32" stroke="black" fill="white"/>
<text dominant-baseline="central" text-anchor="middle" font-family="monospace" font-size="30" x="2528" y="384">H</text>
<rect x="2512" y="1072" width="32" height="32" stroke="black" fill="white"/>
<text dominant-baseline="central" text-anchor="middle" font-family="monospace" font-size="30" x="2528" y="1088">H</text>
<path d="M2592,960 L2592,1088 " stroke="black"/>
<circle cx="2592" cy="1088" r="12" stroke="none" fill="black"/>
<circle cx="2592" cy="960" r="12" stroke="black" fill="white"/>
<path d="M2580,960 L2604,960 M2592,948 L2592,972 " stroke="black"/>
<path d="M2656,896 L2656,1088 " stroke="black"/>
<circle cx="2656" cy="1088" r="12" stroke="none" fill="black"/>
<circle cx="2656" cy="896" r="12" stroke="black" fill="white"/>
<path d="M2644,896 L2668,896 M2656,884 L2656,908 " stroke="black"/>
<rect x="2704" y="1072" width="32" height="32" stroke="black" fill="white"/>
<text dominant-baseline="central" text-anchor="middle" font-family="monospace" font-size="30" x="2720" y="1088">H</text>
<rect x="2704" y="48" width="32" height="32" stroke="black" fill="white"/>
<text dominant-baseline="central" text-anchor="middle" font-family="monospace" font-size="30" x="2720" y="64">H</text>
<path d="M2784,64 L2784,256 " stroke="black"/>
<circle cx="2784" cy="64" r="12" stroke="none" fill="black"/>
<circle cx="2784" cy="256" r="12" stroke="black" fill="white"/>
<path d="M2772,256 L2796,256 M2784,244 L2784,268 " stroke="black"/>
<path d="M2848,64 L2848,192 " stroke="black"/>
<circle cx="2848" cy="64" r="12" stroke="none" fill="black"/>
<circle cx="2848" cy="192" r="12" stroke="black" fill="white"/>
<path d="M2836,192 L2860,192 M2848,180 L2848,204 " stroke="black"/>
<rect x="2896" y="48" width="32" height="32" stroke="black" fill="white"/>
<text dominant-baseline="central" text-anchor="middle" font-family="monospace" font-size="30" x="2912" y="64">H</text>
<rect x="2896" y="752" width="32" height="32" stroke="black" fill="white"/>
<text dominant-baseline="central" text-anchor="middle" font-family="monospace" font-size="30" x="2912" y="768">H</text>
<path d="M2976,640 L2976,768 " stroke="black"/>
<circle cx="2976" cy="768" r="12" stroke="none" fill="black"/>
<circle cx="2976" cy="640" r="12" stroke="black" fill="white"/>
<path d="M2964,640 L2988,640 M2976,628 L2976,652 " stroke="black"/>
<path d="M3040,576 L3040,768 " stroke="black"/>
<circle cx="3040" cy="768" r="12" stroke="none" fill="black"/>
<circle cx="3040" cy="576" r="12" stroke="black" fill="white"/>
<path d="M3028,576 L3052,576 M3040,564 L3040,588 " stroke="black"/>
<path d="M3104,768 L3104,1024 " stroke="black"/>
<circle cx="3104" cy="768" r="12" stroke="none" fill="black"/>
<circle cx="3104" cy="1024" r="12" stroke="black" fill="white"/>
<path d="M3092,1024 L3116,1024 M3104,1012 L3104,1036 " stroke="black"/>
<path d="M3168,768 L3168,960 " stroke="black"/>
<circle cx="3168" cy="768" r="12" stroke="none" fill="black"/>
<circle cx="3168" cy="960" r="12" stroke="black" fill="white"/>
<path d="M3156,960 L3180,960 M3168,948 L3168,972 " stroke="black"/>
<rect x="3216" y="752" width="32" height="32" stroke="black" fill="white"/>
<text dominant-baseline="central" text-anchor="middle" font-family="monospace" font-size="30" x="3232" y="768">H</text>
<path d="M3232,128 L3232,320 " stroke="black"/>
<circle cx="3232" cy="128" r="12" stroke="none" fill="black"/>
<circle cx="3232" cy="320" r="12" stroke="black" fill="white"/>
<path d="M3220,320 L3244,320 M3232,308 L3232,332 " stroke="black"/>
<path d="M3296,320 L3296,512 " stroke="black"/>
<circle cx="3296" cy="512" r="12" stroke="none" fill="black"/>
<circle cx="3296" cy="320" r="12" stroke="black" fill="white"/>
<path d="M3284,320 L3308,320 M3296,308 L3296,332 " stroke="black"/>
<path d="M3296,576 L3296,704 " stroke="black"/>
<circle cx="3296" cy="576" r="12" stroke="none" fill="black"/>
<circle cx="3296" cy="704" r="12" stroke="black" fill="white"/>
<path d="M3284,704 L3308,704 M3296,692 L3296,716 " stroke="black"/>
<path d="M3360,704 L3360,960 " stroke="black"/>
<circle cx="3360" cy="960" r="12" stroke="none" fill="black"/>
<circle cx="3360" cy="704" r="12" stroke="black" fill="white"/>
<path d="M3348,704 L3372,704 M3360,692 L3360,716 " stroke="black"/>
<path d="M3424,512 L3424,704 " stroke="black"/>
<circle cx="3424" cy="512" r="12" stroke="none" fill="black"/>
<circle cx="3424" cy="704" r="12" stroke="black" fill="white"/>
<path d="M3412,704 L3436,704 M3424,692 L3424,716 " stroke="black"/>
<path d="M3488,704 L3488,896 " stroke="black"/>
<circle cx="3488" cy="896" r="12" stroke="none" fill="black"/>
<circle cx="3488" cy="704" r="12" stroke="black" fill="white"/>
<path d="M3476,704 L3500,704 M3488,692 L3488,716 " stroke="black"/>
<path d="M3488,256 L3488,448 " stroke="black"/>
<circle cx="3488" cy="256" r="12" stroke="none" fill="black"/>
<circle cx="3488" cy="448" r="12" stroke="black" fill="white"/>
<path d="M3476,448 L3500,448 M3488,436 L3488,460 " stroke="black"/>
<path d="M3552,448 L3552,640 " stroke="black"/>
<circle cx="3552" cy="640" r="12" stroke="none" fill="black"/>
<circle cx="3552" cy="448" r="12" stroke="black" fill="white"/>
<path d="M3540,448 L3564,448 M3552,436 L3552,460 " stroke="black"/>
<path d="M3616,192 L3616,448 " stroke="black"/>
<circle cx="3616" cy="192" r="12" stroke="none" fill="black"/>
<circle cx="3616" cy="448" r="12" stroke="black" fill="white"/>
<path d="M3604,448 L3628,448 M3616,436 L3616,460 " stroke="black"/>
<path d="M3680,448 L3680,576 " stroke="black"/>
<circle cx="3680" cy="576" r="12" stroke="none" fill="black"/>
<circle cx="3680" cy="448" r="12" stroke="black" fill="white"/>
<path d="M3668,448 L3692,448 M3680,436 L3680,460 " stroke="black"/>
<path d="M3680,640 L3680,832 " stroke="black"/>
<circle cx="3680" cy="640" r="12" stroke="none" fill="black"/>
<circle cx="3680" cy="832" r="12" stroke="black" fill="white"/>
<path d="M3668,832 L3692,832 M3680,820 L3680,844 " stroke="black"/>
<path d="M3744,832 L3744,1024 " stroke="black"/>
<circle cx="3744" cy="1024" r="12" stroke="none" fill="black"/>
<circle cx="3744" cy="832" r="12" stroke="black" fill="white"/>
<path d="M3732,832 L3756,832 M3744,820 L3744,844 " stroke="black"/>
<rect x="3728" y="368" width="32" height="32" stroke="black" fill="black"/>
<text dominant-baseline="central" text-anchor="middle" font-family="monospace" font-size="30" x="3744" y="384" fill="white">M</text>
<text text-anchor="middle" font-family="monospace" font-size="8" x="3744" y="364">rec[8]</text>
<rect x="3728" y="1072" width="32" height="32" stroke="black" fill="black"/>
<text dominant-baseline="central" text-anchor="middle" font-family="monospace" font-size="30" x="3744" y="1088" fill="white">M</text>
<text text-anchor="middle" font-family="monospace" font-size="8" x="3744" y="1068">rec[9]</text>
<rect x="3728" y="48" width="32" height="32" stroke="black" fill="black"/>
<text dominant-baseline="central" text-anchor="middle" font-family="monospace" font-size="30" x="3744" y="64" fill="white">M</text>
<text text-anchor="middle" font-family="monospace" font-size="8" x="3744" y="44">rec[10]</text>
<rect x="3728" y="752" width="32" height="32" stroke="black" fill="black"/>
<text dominant-baseline="central" text-anchor="middle" font-family="monospace" font-size="30" x="3744" y="768" fill="white">M</text>
<text text-anchor="middle" font-family="monospace" font-size="8" x="3744" y="748">rec[11]</text>
<rect x="3728" y="304" width="32" height="32" stroke="black" fill="black"/>
<text dominant-baseline="central" text-anchor="middle" font-family="monospace" font-size="30" x="3744" y="320" fill="white">M</text>
<text text-anchor="middle" font-family="monospace" font-size="8" x="3744" y="300">rec[12]</text>
<rect x="3728" y="688" width="32" height="32" stroke="black" fill="black"/>
<text dominant-baseline="central" text-anchor="middle" font-family="monospace" font-size="30" x="3744" y="704" fill="white">M</text>
<text text-anchor="middle" font-family="monospace" font-size="8" x="3744" y="684">rec[13]</text>
<rect x="3728" y="432" width="32" height="32" stroke="black" fill="black"/>
<text dominant-baseline="central" text-anchor="middle" font-family="monospace" font-size="30" x="3744" y="448" fill="white">M</text>
<text text-anchor="middle" font-family="monospace" font-size="8" x="3744" y="428">rec[14]</text>
<rect x="3792" y="816" width="32" height="32" stroke="black" fill="black"/>
<text dominant-baseline="central" text-anchor="middle" font-family="monospace" font-size="30" x="3808" y="832" fill="white">M</text>
<text text-anchor="middle" font-family="monospace" font-size="8" x="3808" y="812">rec[15]</text>
<path d="M2116,40 L2116,32 L3836,32 L3836,40 " stroke="black" fill="none"/>
<path d="M2116,1144 L2116,1152 L3836,1152 L3836,1144 " stroke="black" fill="none"/>
<rect x="3856" y="368" width="224" height="32" stroke="black" fill="lightgray"/>
<text dominant-baseline="central" text-anchor="middle" font-family="monospace" font-size="16" x="3968" y="384">DETECTOR</text>
<text dominant-baseline="hanging" text-anchor="middle" font-family="monospace" font-size="8" x="3968" y="404">coords=(0.5,0.5,2)</text>
<text text-anchor="middle" font-family="monospace" font-size="8" x="3968" y="364">D0 = rec[0]*rec[8]</text>
<rect x="3856" y="1072" width="224" height="32" stroke="black" fill="lightgray"/>
<text dominant-baseline="central" text-anchor="middle" font-family="monospace" font-size="16" x="3968" y="1088">DETECTOR</text>
<text dominant-baseline="hanging" text-anchor="middle" font-family="monospace" font-size="8" x="3968" y="1108">coords=(0.5,2.5,2)</text>
<text text-anchor="middle" font-family="monospace" font-size="8" x="3968" y="1068">D1 = rec[1]*rec[9]</text>
<rect x="3856" y="48" width="224" height="32" stroke="black" fill="lightgray"/>
<text dominant-baseline="central" text-anchor="middle" font-family="monospace" font-size="16" x="3968" y="64">DETECTOR</text>
<text dominant-baseline="hanging" text-anchor="middle" font-family="monospace" font-size="8" x="3968" y="84">coords=(1.5,-0.5,2)</text>
<text text-anchor="middle" font-family="monospace" font-size="8" x="3968" y="44">D2 = rec[2]*rec[10]</text>
<rect x="3856" y="752" width="224" height="32" stroke="black" fill="lightgray"/>
<text dominant-baseline="central" text-anchor="middle" font-family="monospace" font-size="16" x="3968" y="768">DETECTOR</text>
<text dominant-baseline="hanging" text-anchor="middle" font-family="monospace" font-size="8" x="3968" y="788">coords=(1.5,1.5,2)</text>
<text text-anchor="middle" font-family="monospace" font-size="8" x="3968" y="748">D3 = rec[3]*rec[11]</text>
<rect x="3856" y="304" width="224" height="32" stroke="black" fill="lightgray"/>
<text dominant-baseline="central" text-anchor="middle" font-family="monospace" font-size="16" x="3968" y="320">DETECTOR</text>
<text dominant-baseline="hanging" text-anchor="middle" font-family="monospace" font-size="8" x="3968" y="340">coords=(-0.5,0.5,2)</text>
<text text-anchor="middle" font-family="monospace" font-size="8" x="3968" y="300">D4 = rec[4]*rec[12]</text>
<rect x="3856" y="688" width="224" height="32" stroke="black" fill="lightgray"/>
<text dominant-baseline="central" text-anchor="middle" font-family="monospace" font-size="16" x="3968" y="704">DETECTOR</text>
<text dominant-baseline="hanging" text-anchor="middle" font-family="monospace" font-size="8" x="3968" y="724">coords=(0.5,1.5,2)</text>
<text text-anchor="middle" font-family="monospace" font-size="8" x="3968" y="684">D5 = rec[5]*rec[13]</text>
<rect x="3856" y="432" width="224" height="32" stroke="black" fill="lightgray"/>
<text dominant-baseline="central" text-anchor="middle" font-family="monospace" font-size="16" x="3968" y="448">DETECTOR</text>
<text dominant-baseline="hanging" text-anchor="middle" font-family="monospace" font-size="8" x="3968" y="468">coords=(1.5,0.5,2)</text>
<text text-anchor="middle" font-family="monospace" font-size="8" x="3968" y="428">D6 = rec[6]*rec[14]</text>
<rect x="3856" y="816" width="224" height="32" stroke="black" fill="lightgray"/>
<text dominant-baseline="central" text-anchor="middle" font-family="monospace" font-size="16" x="3968" y="832">DETECTOR</text>
<text dominant-baseline="hanging" text-anchor="middle" font-family="monospace" font-size="8" x="3968" y="852">coords=(2.5,1.5,2)</text>
<text text-anchor="middle" font-family="monospace" font-size="8" x="3968" y="812">D7 = rec[7]*rec[15]</text>
<rect x="3856" y="112" width="32" height="32" stroke="black" fill="black"/>
<text dominant-baseline="central" text-anchor="middle" font-family="monospace" font-size="30" x="3872" y="128" fill="white">M</text>
<text text-anchor="middle" font-family="monospace" font-size="8" x="3872" y="108">rec[16]</text>
<rect x="3856" y="176" width="32" height="32" stroke="black" fill="black"/>
<text dominant-baseline="central" text-anchor="middle" font-family="monospace" font-size="30" x="3872" y="192" fill="white">M</text>
<text text-anchor="middle" font-family="monospace" font-size="8" x="3872" y="172">rec[17]</text>
<rect x="3856" y="240" width="32" height="32" stroke="black" fill="black"/>
<text dominant-baseline="central" text-anchor="middle" font-family="monospace" font-size="30" x="3872" y="256" fill="white">M</text>
<text text-anchor="middle" font-family="monospace" font-size="8" x="3872" y="236">rec[18]</text>
<rect x="3856" y="496" width="32" height="32" stroke="black" fill="black"/>
<text dominant-baseline="central" text-anchor="middle" font-family="monospace" font-size="30" x="3872" y="512" fill="white">M</text>
<text text-anchor="middle" font-family="monospace" font-size="8" x="3872" y="492">rec[19]</text>
<rect x="3856" y="560" width="32" height="32" stroke="black" fill="black"/>
<text dominant-baseline="central" text-anchor="middle" font-family="monospace" font-size="30" x="3872" y="576" fill="white">M</text>
<text text-anchor="middle" font-family="monospace" font-size="8" x="3872" y="556">rec[20]</text>
<rect x="3856" y="624" width="32" height="32" stroke="black" fill="black"/>
<text dominant-baseline="central" text-anchor="middle" font-family="monospace" font-size="30" x="3872" y="640" fill="white">M</text>
<text text-anchor="middle" font-family="monospace" font-size="8" x="3872" y="620">rec[21]</text>
<rect x="3856" y="880" width="32" height="32" stroke="black" fill="black"/>
<text dominant-baseline="central" text-anchor="middle" font-family="monospace" font-size="30" x="3872" y="896" fill="white">M</text>
<text text-anchor="middle" font-family="monospace" font-size="8" x="3872" y="876">rec[22]</text>
<rect x="3856" y="944" width="32" height="32" stroke="black" fill="black"/>
<text dominant-baseline="central" text-anchor="middle" font-family="monospace" font-size="30" x="3872" y="960" fill="white">M</text>
<text text-anchor="middle" font-family="monospace" font-size="8" x="3872" y="940">rec[23]</text>
<rect x="3856" y="1008" width="32" height="32" stroke="black" fill="black"/>
<text dominant-baseline="central" text-anchor="middle" font-family="monospace" font-size="30" x="3872" y="1024" fill="white">M</text>
<text text-anchor="middle" font-family="monospace" font-size="8" x="3872" y="1004">rec[24]</text>
<rect x="4112" y="112" width="672" height="32" stroke="black" fill="lightgray"/>
<text dominant-baseline="central" text-anchor="middle" font-family="monospace" font-size="16" x="4448" y="128">OBS_INCLUDE(0)</text>
<text text-anchor="middle" font-family="monospace" font-size="8" x="4448" y="108">L0 *= rec[24]*rec[23]*rec[22]*rec[21]*rec[20]*rec[19]*rec[18]*rec[17]*rec[16]</text>
<path d="M3844,40 L3844,32 L4796,32 L4796,40 " stroke="black" fill="none"/>
<path d="M3844,1144 L3844,1152 L4796,1152 L4796,1144 " stroke="black" fill="none"/>
</svg>